<svg width="512" height="512" viewBox="0 0 512 512" fill="none" xmlns="http://www.w3.org/2000/svg">
<rect x="8" y="8" width="496" height="496" rx="248" fill="#F5F5F5"/>
<rect x="8" y="8" width="496" height="496" rx="248" stroke="#72B526" stroke-width="16"/>
<path d="M293 152.909C293 148.041 291.774 144.07 289.321 140.996C286.868 137.665 283.889 136 280.385 136H265.833H262.784H222.174H163.964C163.964 146.76 165.453 154.702 168.431 159.826C171.41 164.95 176.052 167.511 182.36 167.511H225.328H262.784H293V253.591H135C135 264.351 136.489 272.293 139.468 277.417C142.446 282.541 147.001 285.103 153.133 285.103H293V373.489H262.784H176.841C170.709 373.489 166.154 376.05 163.175 381.174C160.197 386.298 158.707 394.24 158.707 405H280.385C283.889 405 286.868 403.463 289.321 400.389C291.774 397.058 293 392.959 293 388.091V152.909Z" fill="#72B526"/>
<path d="M357.535 195.896C357.535 191.028 339.194 162.574 336.741 159.5C334.289 156.17 348.425 178.987 344.921 178.987H330.368H327.319H286.71H336.741C336.741 189.747 324.763 186.875 327.742 191.998C330.72 197.122 348.83 210.498 355.138 210.498H289.863H327.319H357.535L325.981 253.59H150.981C150.981 264.35 152.47 272.292 155.448 277.416C158.427 282.539 162.982 285.101 169.114 285.101H325.981V373.487H295.765H344.034C337.902 373.487 333.346 376.049 330.368 381.173C327.389 386.296 326.499 392.24 326.499 403L323.999 403.5C327.503 403.5 321.546 403.574 323.999 400.5C326.452 397.17 325.981 392.957 325.981 388.09L357.535 195.896Z" fill="#72B526"/>
<path d="M176 272.354C176 262.862 177.472 266.504 183.603 261.508C189.733 256.513 198.673 254.015 210.423 254.015H186.965H322.984V165.223C322.984 155.732 326.049 148.488 332.179 143.493C338.31 138.498 347.25 136 359 136V375.777C359 385.268 355.935 392.512 349.804 397.507C343.674 402.502 334.734 405 322.984 405V285.111V254.015H260.5L197.947 257.231C197.947 266.722 204.078 260.529 197.947 265.524C191.817 270.519 185.75 269.914 174 269.914L176 272.354Z" fill="#72B526"/>
</svg>
